<?xml version="1.0" encoding="utf-8"?>
<!-- Generator: Adobe Illustrator 22.0.1, SVG Export Plug-In . SVG Version: 6.00 Build 0)  -->
<svg version="1.1" id="Ebene_1" xmlns="http://www.w3.org/2000/svg" xmlns:xlink="http://www.w3.org/1999/xlink" x="0px" y="0px"
	 viewBox="0 0 600 338" style="enable-background:new 0 0 600 338;" xml:space="preserve">
<style type="text/css">
	.st0{fill:#FFFF00;}
	.st1{enable-background:new    ;}
</style>
<path class="st0" d="M194.2,286.5v7.8c-0.7-0.1-1.4-0.2-2-0.2c-3,0-4.5,1.5-4.5,4.6v9.5h-8.9v-21.4h8.4v2.3
	C188.9,287.4,191.2,286.5,194.2,286.5z"/>
<g class="st1">
	<path class="st0" d="M214.8,266.9v21.4h-8.4v-2c-0.8,0.8-1.7,1.4-2.7,1.8c-1,0.4-2.2,0.6-3.3,0.6c-2.7,0-4.9-0.8-6.5-2.5
		c-1.6-1.7-2.5-4.2-2.5-7.5v-11.8h8.9v10.3c0,1.5,0.2,2.5,0.7,3.1c0.5,0.6,1.2,0.9,2.1,0.9c0.9,0,1.6-0.3,2.2-1
		c0.6-0.7,0.9-1.8,0.9-3.3v-10.1H214.8z"/>
</g>
<g class="st1">
	<path class="st0" d="M239.7,248.9c1.6,1.6,2.4,4,2.4,7.2v12.2h-8.9v-10.7c0-2.5-0.9-3.7-2.6-3.7c-1,0-1.8,0.3-2.4,1
		c-0.6,0.7-0.9,1.8-0.9,3.3v10.1h-8.9v-21.4h8.4v2.1c0.8-0.8,1.8-1.5,2.9-1.9c1.1-0.4,2.3-0.6,3.6-0.6
		C236,246.5,238.1,247.3,239.7,248.9z"/>
</g>
<g class="st1">
	<path class="st0" d="M271,239.9V257c0,4.1-1.1,7.1-3.4,9.2c-2.3,2-5.5,3.1-9.7,3.1c-2.1,0-4.1-0.2-6-0.7c-1.9-0.5-3.4-1.1-4.7-2
		l3-6c0.8,0.6,1.9,1.1,3.2,1.5s2.5,0.6,3.7,0.6c1.8,0,3.1-0.4,3.9-1.1c0.8-0.8,1.2-1.9,1.2-3.3v-0.4c-1.3,1.5-3.3,2.3-5.9,2.3
		c-1.8,0-3.5-0.4-5.1-1.3c-1.6-0.8-2.8-2.1-3.8-3.6c-0.9-1.6-1.4-3.4-1.4-5.4c0-2,0.5-3.8,1.4-5.4c0.9-1.6,2.2-2.8,3.8-3.6
		c1.6-0.8,3.3-1.3,5.1-1.3c2.9,0,5,0.9,6.3,2.8v-2.4H271z M261.2,252.3c0.7-0.6,1-1.5,1-2.5c0-1-0.3-1.8-1-2.5
		c-0.7-0.6-1.6-0.9-2.6-0.9c-1.1,0-2,0.3-2.6,0.9c-0.7,0.6-1,1.4-1,2.5c0,1,0.4,1.8,1.1,2.5s1.6,1,2.6,1
		C259.6,253.2,260.5,252.9,261.2,252.3z"/>
</g>
<g class="st1">
	<path class="st0" d="M296.1,245.8c1.6,0.9,2.8,2.2,3.8,3.9c0.9,1.7,1.4,3.6,1.4,5.9s-0.5,4.2-1.4,5.9c-0.9,1.7-2.2,3-3.8,3.9
		c-1.6,0.9-3.3,1.4-5.2,1.4c-2.6,0-4.6-0.7-5.9-2.2v1.8h-8.4v-29.1h8.9v9.1c1.3-1.2,3.1-1.8,5.4-1.8
		C292.8,244.5,294.5,244.9,296.1,245.8z M291.3,258.7c0.7-0.7,1-1.8,1-3.1s-0.3-2.4-1-3.1c-0.7-0.7-1.5-1.1-2.5-1.1
		c-1,0-1.9,0.4-2.5,1.1c-0.7,0.7-1,1.8-1,3.1s0.3,2.4,1,3.1c0.7,0.7,1.5,1.1,2.5,1.1C289.8,259.8,290.7,259.4,291.3,258.7z"/>
</g>
<g class="st1">
	<path class="st0" d="M323.4,271.7h-14.9c0.3,0.8,0.8,1.4,1.6,1.9c0.7,0.4,1.6,0.6,2.7,0.6c0.9,0,1.7-0.1,2.4-0.4
		c0.6-0.2,1.3-0.6,2.1-1.2l4.6,4.7c-2.1,2.3-5.2,3.4-9.4,3.4c-2.6,0-4.9-0.5-6.8-1.4c-2-1-3.5-2.3-4.5-4c-1.1-1.7-1.6-3.6-1.6-5.7
		c0-2.1,0.5-4.1,1.6-5.7c1.1-1.7,2.5-3,4.3-3.9c1.8-0.9,3.9-1.4,6.2-1.4c2.2,0,4.1,0.4,5.9,1.3c1.8,0.9,3.2,2.1,4.3,3.8
		c1.1,1.7,1.6,3.7,1.6,6C323.5,269.7,323.5,270.4,323.4,271.7z M309.6,265.3c-0.6,0.5-1,1.2-1.2,2.1h6.9c-0.2-0.9-0.6-1.6-1.2-2.1
		c-0.6-0.5-1.4-0.8-2.3-0.8S310.2,264.8,309.6,265.3z"/>
</g>
<g class="st1">
	<path class="st0" d="M342.4,276.5v7.8c-0.7-0.1-1.4-0.2-2-0.2c-3,0-4.5,1.5-4.5,4.6v9.5h-8.9v-21.4h8.4v2.3
		C337.1,277.4,339.4,276.5,342.4,276.5z"/>
</g>
<g class="st1">
	<path class="st0" d="M364.1,299.7h-14.9c0.3,0.8,0.8,1.4,1.6,1.9c0.7,0.4,1.6,0.6,2.7,0.6c0.9,0,1.7-0.1,2.4-0.4
		c0.6-0.2,1.3-0.6,2.1-1.2l4.6,4.7c-2.1,2.3-5.2,3.4-9.4,3.4c-2.6,0-4.9-0.5-6.8-1.4c-2-1-3.5-2.3-4.5-4s-1.6-3.6-1.6-5.7
		c0-2.1,0.5-4.1,1.6-5.7c1.1-1.7,2.5-3,4.3-3.9c1.8-0.9,3.9-1.4,6.2-1.4c2.2,0,4.1,0.4,5.9,1.3c1.8,0.9,3.2,2.1,4.3,3.8
		c1.1,1.7,1.6,3.7,1.6,6C364.2,297.7,364.2,298.4,364.1,299.7z M350.3,293.3c-0.6,0.5-1,1.2-1.2,2.1h6.9c-0.2-0.9-0.6-1.6-1.2-2.1
		c-0.6-0.5-1.4-0.8-2.3-0.8S350.9,292.8,350.3,293.3z"/>
</g>
<g class="st1">
	<path class="st0" d="M365.3,283.9c-1-0.8-1.5-1.9-1.5-3.2c0-1.3,0.5-2.4,1.5-3.2c1-0.8,2.3-1.3,3.9-1.3c1.6,0,2.9,0.4,3.9,1.2
		c1,0.8,1.4,1.9,1.4,3.1c0,1.4-0.5,2.5-1.4,3.3c-1,0.9-2.3,1.3-3.9,1.3C367.6,285.2,366.3,284.7,365.3,283.9z M364.7,286.9h8.9v21.4
		h-8.9V286.9z"/>
</g>
<g class="st1">
	<path class="st0" d="M393,307.6c-1.3,0.8-3.1,1.1-5.4,1.1c-3,0-5.3-0.7-6.9-2.2s-2.4-3.6-2.4-6.5v-5.5h-2.9v-6.5h2.9v-6h8.9v6h4.4
		v6.5h-4.4v5.4c0,0.7,0.2,1.2,0.5,1.5c0.3,0.4,0.8,0.5,1.3,0.5c0.8,0,1.4-0.2,2-0.6L393,307.6z"/>
</g>
<g>
	<defs>
		<rect id="SVGID_1_" x="94.6" y="232.6" width="392.2" height="90"/>
	</defs>
	<clipPath id="SVGID_2_">
		<use xlink:href="#SVGID_1_"  style="overflow:visible;"/>
	</clipPath>
</g>
<path class="st0" d="M173.9,291.7c-0.9-1.7-2.2-3-3.8-3.9c-1.6-0.9-3.3-1.4-5.2-1.4c-2.6,0-4.6,0.7-5.9,2.2v-1.8H80.7v29h78.9v-9
	c1.3,1.2,3.1,1.8,5.4,1.8c1.9,0,3.6-0.5,5.2-1.4c1.6-0.9,2.8-2.2,3.8-3.9c0.9-1.7,1.4-3.6,1.4-5.9S174.8,293.4,173.9,291.7z
	 M106,309.1c-0.8,1.1-2.1,2-3.8,2.6c-1.7,0.7-3.7,1-6.1,1c-1.8,0-3.6-0.2-5.4-0.6c-1.8-0.4-3.2-0.9-4.3-1.5l2.4-5.8
	c1,0.6,2.2,1.1,3.5,1.4c1.4,0.3,2.7,0.5,4,0.5c1,0,1.7-0.1,2.1-0.3c0.4-0.2,0.6-0.4,0.6-0.8c0-0.3-0.3-0.6-0.8-0.7
	c-0.5-0.1-1.3-0.3-2.5-0.4c-1.7-0.2-3.2-0.5-4.5-0.8c-1.2-0.3-2.3-1-3.2-1.9c-0.9-0.9-1.4-2.3-1.4-4c0-1.4,0.4-2.6,1.3-3.7
	c0.8-1.1,2.1-2,3.7-2.6c1.7-0.7,3.6-1,6-1c1.6,0,3.2,0.2,4.8,0.5c1.6,0.3,2.9,0.7,4,1.3l-2.4,5.8c-1.9-1-3.9-1.6-6.2-1.6
	c-1.9,0-2.9,0.3-2.9,1c0,0.3,0.3,0.6,0.8,0.7c0.5,0.1,1.3,0.3,2.5,0.4c1.7,0.2,3.2,0.5,4.4,0.8c1.2,0.3,2.3,1,3.2,1.9
	c0.9,0.9,1.4,2.3,1.4,4C107.3,306.8,106.8,308,106,309.1z M165.4,300.7c-0.7,0.7-1.5,1.1-2.5,1.1c-1,0-1.9-0.4-2.5-1.1s-1-1.8-1-3.1
	s0.3-2.4,1-3.1s1.5-1.1,2.5-1.1c1,0,1.9,0.4,2.5,1.1c0.7,0.7,1,1.8,1,3.1S166,300,165.4,300.7z"/>
</svg>
